<mxfile host="app.diagrams.net" modified="2024-05-18T15:15:46.008Z" agent="Mozilla/5.0 (Windows NT 10.0; Win64; x64) AppleWebKit/537.36 (KHTML, like Gecko) Chrome/124.0.0.0 Safari/537.36" etag="JoDLtZMU8ZuLTWXId6Kp" version="24.4.4" type="device">
  <diagram name="Page-1" id="EPPFpsOUxqx5SFUF31Uo">
    <mxGraphModel dx="712" dy="745" grid="1" gridSize="10" guides="1" tooltips="1" connect="1" arrows="1" fold="1" page="1" pageScale="1" pageWidth="827" pageHeight="1169" math="0" shadow="0">
      <root>
        <mxCell id="0" />
        <mxCell id="1" parent="0" />
        <mxCell id="aX36bkh_nh4iXQkGOq5b-1" value="Invitation" style="swimlane;childLayout=stackLayout;horizontal=1;startSize=50;horizontalStack=0;rounded=1;fontSize=14;fontStyle=0;strokeWidth=2;resizeParent=0;resizeLast=1;shadow=0;dashed=0;align=center;arcSize=4;whiteSpace=wrap;html=1;" vertex="1" parent="1">
          <mxGeometry x="70" y="90" width="160" height="120" as="geometry" />
        </mxCell>
        <mxCell id="aX36bkh_nh4iXQkGOq5b-2" value="Invite_name Int()&lt;div&gt;Member_name( Int()&lt;/div&gt;&lt;div&gt;Invite_date Date&lt;/div&gt;&lt;div&gt;Accept_date Date&lt;/div&gt;" style="align=left;strokeColor=none;fillColor=none;spacingLeft=4;fontSize=12;verticalAlign=top;resizable=0;rotatable=0;part=1;html=1;" vertex="1" parent="aX36bkh_nh4iXQkGOq5b-1">
          <mxGeometry y="50" width="160" height="70" as="geometry" />
        </mxCell>
        <mxCell id="aX36bkh_nh4iXQkGOq5b-3" value="dinner_attendance" style="swimlane;childLayout=stackLayout;horizontal=1;startSize=50;horizontalStack=0;rounded=1;fontSize=14;fontStyle=0;strokeWidth=2;resizeParent=0;resizeLast=1;shadow=0;dashed=0;align=center;arcSize=4;whiteSpace=wrap;html=1;" vertex="1" parent="1">
          <mxGeometry x="480" y="80" width="160" height="120" as="geometry" />
        </mxCell>
        <mxCell id="aX36bkh_nh4iXQkGOq5b-4" value="Dinner_code Int()&lt;div&gt;Mamber_num Int()&lt;/div&gt;&lt;div&gt;Dinner_attend Char()&lt;/div&gt;" style="align=left;strokeColor=none;fillColor=none;spacingLeft=4;fontSize=12;verticalAlign=top;resizable=0;rotatable=0;part=1;html=1;" vertex="1" parent="aX36bkh_nh4iXQkGOq5b-3">
          <mxGeometry y="50" width="160" height="70" as="geometry" />
        </mxCell>
        <mxCell id="aX36bkh_nh4iXQkGOq5b-5" value="member" style="swimlane;childLayout=stackLayout;horizontal=1;startSize=50;horizontalStack=0;rounded=1;fontSize=14;fontStyle=0;strokeWidth=2;resizeParent=0;resizeLast=1;shadow=0;dashed=0;align=center;arcSize=4;whiteSpace=wrap;html=1;" vertex="1" parent="1">
          <mxGeometry x="480" y="300" width="160" height="130" as="geometry" />
        </mxCell>
        <mxCell id="aX36bkh_nh4iXQkGOq5b-6" value="Member_num Int()&lt;div&gt;Member_name varchar()&lt;/div&gt;&lt;div&gt;Member_address varchar()&lt;/div&gt;&lt;div&gt;Member_city varchar()&lt;/div&gt;&lt;div&gt;member_zip varchar()&lt;/div&gt;" style="align=left;strokeColor=none;fillColor=none;spacingLeft=4;fontSize=12;verticalAlign=top;resizable=0;rotatable=0;part=1;html=1;" vertex="1" parent="aX36bkh_nh4iXQkGOq5b-5">
          <mxGeometry y="50" width="160" height="80" as="geometry" />
        </mxCell>
        <mxCell id="aX36bkh_nh4iXQkGOq5b-7" value="dessert" style="swimlane;childLayout=stackLayout;horizontal=1;startSize=50;horizontalStack=0;rounded=1;fontSize=14;fontStyle=0;strokeWidth=2;resizeParent=0;resizeLast=1;shadow=0;dashed=0;align=center;arcSize=4;whiteSpace=wrap;html=1;" vertex="1" parent="1">
          <mxGeometry x="30" y="370" width="160" height="120" as="geometry" />
        </mxCell>
        <mxCell id="aX36bkh_nh4iXQkGOq5b-8" value="Dessert_code&lt;div&gt;Dessert_desc varchar&lt;/div&gt;" style="align=left;strokeColor=none;fillColor=none;spacingLeft=4;fontSize=12;verticalAlign=top;resizable=0;rotatable=0;part=1;html=1;" vertex="1" parent="aX36bkh_nh4iXQkGOq5b-7">
          <mxGeometry y="50" width="160" height="70" as="geometry" />
        </mxCell>
        <mxCell id="aX36bkh_nh4iXQkGOq5b-9" value="entree" style="swimlane;childLayout=stackLayout;horizontal=1;startSize=50;horizontalStack=0;rounded=1;fontSize=14;fontStyle=0;strokeWidth=2;resizeParent=0;resizeLast=1;shadow=0;dashed=0;align=center;arcSize=4;whiteSpace=wrap;html=1;" vertex="1" parent="1">
          <mxGeometry x="190" y="610" width="160" height="120" as="geometry" />
        </mxCell>
        <mxCell id="aX36bkh_nh4iXQkGOq5b-10" value="Entree_code Int()&lt;div&gt;Entree_Desc varchar()&lt;/div&gt;&lt;div&gt;Dinner_code Int()&lt;/div&gt;" style="align=left;strokeColor=none;fillColor=none;spacingLeft=4;fontSize=12;verticalAlign=top;resizable=0;rotatable=0;part=1;html=1;" vertex="1" parent="aX36bkh_nh4iXQkGOq5b-9">
          <mxGeometry y="50" width="160" height="70" as="geometry" />
        </mxCell>
        <mxCell id="aX36bkh_nh4iXQkGOq5b-16" style="edgeStyle=orthogonalEdgeStyle;rounded=0;orthogonalLoop=1;jettySize=auto;html=1;exitX=0;exitY=0.25;exitDx=0;exitDy=0;entryX=1;entryY=0.25;entryDx=0;entryDy=0;" edge="1" parent="1" source="aX36bkh_nh4iXQkGOq5b-11" target="aX36bkh_nh4iXQkGOq5b-7">
          <mxGeometry relative="1" as="geometry" />
        </mxCell>
        <mxCell id="aX36bkh_nh4iXQkGOq5b-11" value="dinner" style="swimlane;childLayout=stackLayout;horizontal=1;startSize=50;horizontalStack=0;rounded=1;fontSize=14;fontStyle=0;strokeWidth=2;resizeParent=0;resizeLast=1;shadow=0;dashed=0;align=center;arcSize=4;whiteSpace=wrap;html=1;" vertex="1" parent="1">
          <mxGeometry x="520" y="525" width="160" height="120" as="geometry" />
        </mxCell>
        <mxCell id="aX36bkh_nh4iXQkGOq5b-12" value="Dinner_code Int()&lt;div&gt;Dinner_date Date&lt;/div&gt;&lt;div&gt;Dinner_desc varchar()&lt;/div&gt;&lt;div&gt;Dessert_Code Int()&lt;/div&gt;" style="align=left;strokeColor=none;fillColor=none;spacingLeft=4;fontSize=12;verticalAlign=top;resizable=0;rotatable=0;part=1;html=1;" vertex="1" parent="aX36bkh_nh4iXQkGOq5b-11">
          <mxGeometry y="50" width="160" height="70" as="geometry" />
        </mxCell>
        <mxCell id="aX36bkh_nh4iXQkGOq5b-13" style="edgeStyle=orthogonalEdgeStyle;rounded=0;orthogonalLoop=1;jettySize=auto;html=1;exitX=1;exitY=0;exitDx=0;exitDy=0;entryX=0.006;entryY=0.408;entryDx=0;entryDy=0;entryPerimeter=0;" edge="1" parent="1" source="aX36bkh_nh4iXQkGOq5b-2" target="aX36bkh_nh4iXQkGOq5b-3">
          <mxGeometry relative="1" as="geometry" />
        </mxCell>
        <mxCell id="aX36bkh_nh4iXQkGOq5b-14" style="edgeStyle=orthogonalEdgeStyle;rounded=0;orthogonalLoop=1;jettySize=auto;html=1;exitX=0.5;exitY=1;exitDx=0;exitDy=0;entryX=0.5;entryY=0;entryDx=0;entryDy=0;" edge="1" parent="1" source="aX36bkh_nh4iXQkGOq5b-4" target="aX36bkh_nh4iXQkGOq5b-5">
          <mxGeometry relative="1" as="geometry" />
        </mxCell>
        <mxCell id="aX36bkh_nh4iXQkGOq5b-15" style="edgeStyle=orthogonalEdgeStyle;rounded=0;orthogonalLoop=1;jettySize=auto;html=1;entryX=0.25;entryY=0;entryDx=0;entryDy=0;" edge="1" parent="1" source="aX36bkh_nh4iXQkGOq5b-6" target="aX36bkh_nh4iXQkGOq5b-11">
          <mxGeometry relative="1" as="geometry" />
        </mxCell>
        <mxCell id="aX36bkh_nh4iXQkGOq5b-17" style="edgeStyle=orthogonalEdgeStyle;rounded=0;orthogonalLoop=1;jettySize=auto;html=1;entryX=1;entryY=0.25;entryDx=0;entryDy=0;" edge="1" parent="1" source="aX36bkh_nh4iXQkGOq5b-12" target="aX36bkh_nh4iXQkGOq5b-9">
          <mxGeometry relative="1" as="geometry" />
        </mxCell>
        <mxCell id="aX36bkh_nh4iXQkGOq5b-18" style="edgeStyle=orthogonalEdgeStyle;rounded=0;orthogonalLoop=1;jettySize=auto;html=1;entryX=0;entryY=0.75;entryDx=0;entryDy=0;" edge="1" parent="1" source="aX36bkh_nh4iXQkGOq5b-2" target="aX36bkh_nh4iXQkGOq5b-5">
          <mxGeometry relative="1" as="geometry">
            <Array as="points">
              <mxPoint x="390" y="175" />
              <mxPoint x="390" y="398" />
            </Array>
          </mxGeometry>
        </mxCell>
      </root>
    </mxGraphModel>
  </diagram>
</mxfile>
